<svg xmlns="http://www.w3.org/2000/svg" viewBox="0 0 512 512" width="512" height="512">
  <rect x="0" y="0" width="512" height="512" rx="96" fill="#1a1410"/>
  <rect x="4" y="4" width="504" height="504" rx="92" fill="#221c14"/>
  <g transform="translate(256,246)">
    <path d="M0,-170 C14,-125 22,-60 0,10 C-22,-60 -14,-125 0,-170 Z" fill="#d9ceb5"/>
    <path d="M0,-170 C-10,-135 -55,-105 -98,-50 C-65,-48 -32,-72 0,-40 C-12,-82 -12,-138 0,-170 Z" fill="#d9ceb5" opacity="0.92"/>
    <path d="M0,-170 C10,-135 55,-105 98,-50 C65,-48 32,-72 0,-40 C12,-82 12,-138 0,-170 Z" fill="#d9ceb5" opacity="0.92"/>
    <path d="M-98,-50 C-118,-15 -128,25 -105,65 C-82,42 -62,8 -42,-12 C-64,-22 -86,-42 -98,-50 Z" fill="#c4b99a" opacity="0.85"/>
    <path d="M98,-50 C118,-15 128,25 105,65 C82,42 62,8 42,-12 C64,-22 86,-42 98,-50 Z" fill="#c4b99a" opacity="0.85"/>
    <path d="M0,10 C0,55 -2,95 0,150" stroke="#c4b99a" stroke-width="7" fill="none" stroke-linecap="round"/>
    <path d="M0,65 C-35,40 -65,52 -78,85 C-55,72 -22,72 0,85 Z" fill="#8b7a5a" opacity="0.7"/>
    <path d="M0,100 C35,75 65,87 78,120 C55,107 22,107 0,120 Z" fill="#8b7a5a" opacity="0.7"/>
    <circle cx="0" cy="-108" r="5" fill="#8b3a3a" opacity="0.8"/>
    <circle cx="-20" cy="-80" r="4" fill="#8b3a3a" opacity="0.6"/>
    <circle cx="20" cy="-80" r="4" fill="#8b3a3a" opacity="0.6"/>
    <line x1="-60" y1="165" x2="60" y2="165" stroke="#8b3a3a" stroke-width="2.5" opacity="0.5"/>
  </g>
</svg>